<?xml version="1.0" encoding="utf-8"?>
<!-- Generator: Adobe Illustrator 23.0.2, SVG Export Plug-In . SVG Version: 6.00 Build 0)  -->
<svg version="1.1" id="Ebene_1" xmlns="http://www.w3.org/2000/svg" xmlns:xlink="http://www.w3.org/1999/xlink" x="0px" y="0px"
	 width="260px" height="53.428px" viewBox="0 0 260 53.428" style="enable-background:new 0 0 260 53.428;" xml:space="preserve">
<style type="text/css">
	.st0{clip-path:url(#SVGID_2_);fill-rule:evenodd;clip-rule:evenodd;fill:#009338;}
	.st1{clip-path:url(#SVGID_2_);fill-rule:evenodd;clip-rule:evenodd;}
	.st2{clip-path:url(#SVGID_2_);}
</style>
<g>
	<defs>
		<rect id="SVGID_1_" y="-12.884" width="260" height="79.585"/>
	</defs>
	<clipPath id="SVGID_2_">
		<use xlink:href="#SVGID_1_"  style="overflow:visible;"/>
	</clipPath>
	<path class="st0" d="M131.68,44.453c-0.383,0-0.692-0.309-0.692-0.69v-3.028c0-0.383,0.309-0.694,0.692-0.694l29.596,0.002
		l0.023-0.002c0.383,0,0.694,0.311,0.694,0.692v3.028c0,0.381-0.311,0.692-0.694,0.692l-0.03,0.002L131.68,44.453z"/>
	<path class="st0" d="M131.68,53.203c-0.383,0-0.692-0.307-0.692-0.69v-3.028c0-0.381,0.309-0.692,0.692-0.692h29.596h0.023
		c0.383,0,0.694,0.307,0.694,0.69v3.028c0,0.381-0.311,0.692-0.694,0.692l-0.03,0.002L131.68,53.203z"/>
	<path class="st0" d="M131.68,4.641c-0.383,0-0.692-0.309-0.692-0.69V0.922c0-0.381,0.309-0.692,0.692-0.692l29.596,0.002
		l0.023-0.002c0.383,0,0.694,0.309,0.694,0.692v3.027c0,0.381-0.311,0.692-0.694,0.692l-0.03,0.002L131.68,4.641z"/>
	<path class="st1" d="M35.794,9.729c0-0.381,0.311-0.692,0.692-0.692h4.213c0.383,0,0.694,0.311,0.694,0.692v16.076
		c0,3.272,3.021,5.477,8.331,5.477c5.311,0,8.333-2.243,8.333-5.477V9.729c0-0.383,0.311-0.692,0.692-0.692h4.211
		c0.383,0,0.694,0.307,0.694,0.69v16.96c0,5.624-5.311,9.74-13.93,9.74c-8.617,0-13.928-4.116-13.928-9.74L35.794,9.729z"/>
	<path class="st1" d="M79.986,35.657c-0.383,0-0.692-0.311-0.692-0.692v-0.002L79.29,14.152L69.01,14.15
		c-0.381,0-0.692-0.309-0.692-0.69V9.731c0-0.383,0.311-0.694,0.692-0.694l26.132,0.002l0.023-0.002
		c0.383,0,0.694,0.309,0.694,0.692v3.727c0,0.383-0.311,0.694-0.694,0.694l-0.032,0.002H84.886l0.002,20.813
		c0,0.381-0.311,0.69-0.694,0.69L79.986,35.657z"/>
	<path class="st1" d="M126.12,31.236v3.729c0,0.383-0.309,0.692-0.692,0.692h-25.356c-0.417,0-0.727-0.307-0.727-0.69v-4.42
		l18.477-16.323v-0.072L100.32,14.15c-0.383,0-0.69-0.309-0.69-0.69l-0.004-3.731c0-0.381,0.311-0.692,0.694-0.692l24.247,0.002
		c0.383,0,0.694,0.309,0.694,0.705v4.409l-18.509,16.284v0.111h18.666l0.009-0.002C125.811,30.545,126.12,30.852,126.12,31.236"/>
	<path class="st1" d="M225.511,29.845c-3.696,4.579-7.912,6.547-13.664,6.547c-4.07,0-7.505-1.067-10.812-3.418
		c-3.085-2.207-5.055-6.212-5.055-10.697c0-3.825,1.367-7.169,3.975-9.669c2.894-2.756,7.028-4.374,11.64-4.374
		c6.092,0,10.45,1.974,14.142,7.114c0.095,0.118,0.152,0.265,0.152,0.429c0,0.291-0.177,0.539-0.411,0.641L221.658,18
		c-0.085,0.035-0.175,0.06-0.274,0.06c-0.205,0-0.388-0.09-0.501-0.215c-2.53-2.739-5.767-4.466-9.733-4.466
		c-5.725,0-9.604,3.75-9.604,8.898c0,5.255,3.943,8.968,10.049,8.968c3.694,0,6.678-1.444,9.288-4.503
		c0.127-0.15,0.316-0.246,0.53-0.246c0.138,0,0.267,0.041,0.374,0.109l3.533,2.2c0.207,0.12,0.351,0.343,0.351,0.599
		C225.671,29.573,225.609,29.725,225.511,29.845"/>
	<path class="st1" d="M237.192,24.224v10.741c0,0.381-0.309,0.692-0.692,0.692l-4.203-0.002c-0.392,0.002-0.703-0.309-0.703-0.692
		V9.733c0-0.381,0.311-0.694,0.694-0.694h4.211c0.383,0,0.692,0.307,0.692,0.69v9.055h16.628V9.729c0-0.383,0.309-0.69,0.69-0.69
		h4.213c0.381,0,0.692,0.313,0.692,0.694v25.231c0,0.383-0.311,0.694-0.701,0.692l-4.204,0.002c-0.381,0-0.69-0.311-0.69-0.692
		V24.224H237.192z"/>
	<path class="st1" d="M0.124,9.73c0-0.383,0.309-0.692,0.692-0.692h21.327c4.238,0,7.672,3.434,7.672,7.672
		c0,2.045-0.676,3.862-2.347,5.122c2.301,1.321,3.539,3.537,3.539,6.323c0,4.141-3.357,7.497-7.497,7.497H0.816
		c-0.383,0-0.692-0.311-0.692-0.692V9.73z M5.808,19.359v-5.167h15.618c1.427,0,2.583,1.157,2.583,2.583
		c0,1.427-1.157,2.583-2.583,2.583H5.808z M5.808,30.486v-5.926h16.443c1.637,0,2.963,1.326,2.963,2.963
		c0,1.635-1.326,2.961-2.963,2.961L5.808,30.486z"/>
	<path class="st1" d="M131.013,9.73c0-0.383,0.309-0.692,0.692-0.692h21.327c4.238,0,7.672,3.434,7.672,7.672
		c0,2.045-0.676,3.862-2.347,5.122c2.299,1.321,3.539,3.537,3.539,6.323c0,4.141-3.358,7.497-7.499,7.497h-22.692
		c-0.383,0-0.692-0.311-0.692-0.692V9.73z M136.697,19.359v-5.167h15.616c1.427,0,2.583,1.157,2.583,2.583
		c0,1.427-1.157,2.583-2.583,2.583H136.697z M136.697,30.486v-5.926h16.443c1.635,0,2.963,1.326,2.963,2.963
		c0,1.635-1.328,2.961-2.963,2.961L136.697,30.486z"/>
	<path class="st1" d="M194.038,35.658c0.381,0,0.692-0.311,0.692-0.692c0-0.104-0.023-0.201-0.064-0.288l-11.58-25.243
		c-0.113-0.231-0.351-0.392-0.625-0.392h-6.007c-0.275,0-0.51,0.157-0.622,0.388l-11.61,25.228
		c-0.046,0.092-0.071,0.196-0.071,0.307c0,0.381,0.309,0.692,0.692,0.692h4.132c0.291,0,0.542-0.177,0.644-0.431l2.442-5.304h14.756
		l2.454,5.333c0.109,0.238,0.35,0.401,0.629,0.401L194.038,35.658z M184.466,24.812h-10.113l5.055-10.918L184.466,24.812z"/>
	<polygon class="st2" points="167.535,53.249 167.535,48.925 165.776,48.925 165.776,48.349 170,48.349 170,48.925 168.243,48.925 
		168.243,53.249 	"/>
	<polygon class="st2" points="171.845,53.249 171.845,48.349 172.553,48.349 172.553,50.369 175.309,50.369 175.309,48.349 
		176.015,48.349 176.015,53.249 175.309,53.249 175.309,50.943 172.553,50.943 172.553,53.249 	"/>
	<polygon class="st2" points="178.295,53.249 178.295,48.349 182.146,48.349 182.146,48.925 179.003,48.925 179.003,50.429 
		181.945,50.429 181.945,51.005 179.003,51.005 179.003,52.673 182.273,52.673 182.273,53.249 	"/>
	<path class="st2" d="M187.781,52.673h1.137c0.351,0,0.627-0.028,0.826-0.09c0.2-0.06,0.358-0.145,0.479-0.254
		c0.166-0.154,0.297-0.36,0.388-0.622c0.094-0.26,0.141-0.574,0.141-0.945c0-0.514-0.092-0.908-0.275-1.183
		c-0.182-0.277-0.404-0.461-0.666-0.554c-0.189-0.067-0.493-0.101-0.913-0.101h-1.118V52.673z M187.073,53.249v-4.9h1.838
		c0.413,0,0.731,0.023,0.948,0.071c0.305,0.065,0.567,0.182,0.782,0.351c0.283,0.219,0.493,0.496,0.63,0.837
		c0.141,0.339,0.21,0.727,0.21,1.165c0,0.371-0.046,0.701-0.141,0.989c-0.094,0.288-0.215,0.524-0.364,0.713
		c-0.148,0.189-0.311,0.337-0.487,0.443c-0.175,0.109-0.387,0.191-0.634,0.247c-0.251,0.055-0.535,0.083-0.858,0.083H187.073z"/>
	<path class="st2" d="M194.051,50.877c0,0.588,0.173,1.052,0.519,1.391c0.344,0.339,0.777,0.508,1.3,0.508
		c0.53,0,0.966-0.171,1.31-0.512c0.343-0.343,0.514-0.828,0.514-1.459c0-0.397-0.072-0.745-0.219-1.042
		c-0.147-0.297-0.362-0.528-0.644-0.69c-0.283-0.162-0.599-0.245-0.95-0.245c-0.5,0-0.929,0.157-1.289,0.473
		C194.231,49.616,194.051,50.14,194.051,50.877 M193.322,50.864c0-0.812,0.238-1.448,0.713-1.907c0.477-0.461,1.089-0.69,1.842-0.69
		c0.493,0,0.936,0.109,1.331,0.325c0.396,0.215,0.697,0.516,0.904,0.902c0.207,0.387,0.313,0.825,0.313,1.314
		c0,0.496-0.11,0.941-0.328,1.331c-0.219,0.392-0.528,0.689-0.927,0.89c-0.401,0.201-0.833,0.302-1.296,0.302
		c-0.503,0-0.952-0.111-1.347-0.334c-0.396-0.222-0.696-0.526-0.899-0.911C193.425,51.701,193.322,51.295,193.322,50.864"/>
	<path class="st2" d="M200.931,50.877c0,0.588,0.173,1.052,0.517,1.391c0.346,0.339,0.779,0.508,1.301,0.508
		c0.53,0,0.966-0.171,1.31-0.512c0.343-0.343,0.514-0.828,0.514-1.459c0-0.397-0.072-0.745-0.219-1.042
		c-0.147-0.297-0.362-0.528-0.644-0.69c-0.283-0.162-0.599-0.245-0.95-0.245c-0.5,0-0.929,0.157-1.289,0.473
		C201.111,49.616,200.931,50.14,200.931,50.877 M200.202,50.864c0-0.812,0.238-1.448,0.713-1.907c0.477-0.461,1.089-0.69,1.842-0.69
		c0.493,0,0.936,0.109,1.331,0.325s0.697,0.516,0.904,0.902c0.207,0.387,0.311,0.825,0.311,1.314c0,0.496-0.108,0.941-0.327,1.331
		c-0.219,0.392-0.528,0.689-0.927,0.89c-0.401,0.201-0.833,0.302-1.296,0.302c-0.503,0-0.952-0.111-1.347-0.334
		c-0.396-0.222-0.696-0.526-0.899-0.911C200.304,51.701,200.202,51.295,200.202,50.864"/>
	<path class="st2" d="M208.02,50.512h1.513c0.323,0,0.574-0.032,0.756-0.092c0.182-0.062,0.32-0.159,0.411-0.295
		c0.095-0.134,0.141-0.281,0.141-0.44c0-0.231-0.09-0.422-0.272-0.572c-0.184-0.15-0.471-0.224-0.865-0.224h-1.685V50.512z
		 M207.312,53.249v-4.9h2.364c0.475,0,0.835,0.046,1.082,0.132c0.247,0.088,0.445,0.244,0.593,0.466
		c0.147,0.222,0.221,0.468,0.221,0.738c0,0.348-0.124,0.641-0.367,0.879c-0.245,0.238-0.623,0.388-1.134,0.454
		c0.187,0.081,0.328,0.164,0.425,0.244c0.207,0.173,0.401,0.39,0.584,0.652l0.922,1.335h-0.881l-0.706-1.019
		c-0.205-0.297-0.374-0.521-0.507-0.676c-0.134-0.157-0.254-0.265-0.358-0.328c-0.104-0.062-0.214-0.104-0.323-0.129
		c-0.078-0.016-0.208-0.023-0.392-0.023h-0.816v2.175H207.312z"/>
	<path class="st2" d="M220.3,51.53l0.708,0.164c-0.148,0.533-0.413,0.938-0.798,1.217c-0.383,0.279-0.853,0.42-1.407,0.42
		c-0.574,0-1.04-0.108-1.4-0.323c-0.36-0.214-0.632-0.526-0.821-0.932c-0.187-0.408-0.281-0.846-0.281-1.314
		c0-0.508,0.104-0.953,0.318-1.333c0.212-0.38,0.514-0.669,0.904-0.867c0.392-0.196,0.823-0.295,1.291-0.295
		c0.535,0,0.982,0.125,1.346,0.374c0.364,0.249,0.616,0.6,0.759,1.052l-0.692,0.15c-0.124-0.357-0.304-0.616-0.539-0.779
		c-0.235-0.162-0.53-0.244-0.886-0.244c-0.408,0-0.75,0.09-1.024,0.27c-0.275,0.18-0.468,0.424-0.579,0.727
		c-0.111,0.304-0.168,0.618-0.168,0.939c0,0.417,0.065,0.78,0.198,1.091c0.131,0.311,0.337,0.542,0.615,0.696
		c0.277,0.155,0.579,0.231,0.902,0.231c0.396,0,0.727-0.104,1.001-0.314C220.018,52.253,220.203,51.943,220.3,51.53"/>
	<path class="st2" d="M223.48,50.877c0,0.588,0.173,1.052,0.519,1.391c0.344,0.339,0.777,0.508,1.3,0.508
		c0.53,0,0.966-0.171,1.31-0.512c0.342-0.343,0.514-0.828,0.514-1.459c0-0.397-0.072-0.745-0.219-1.042
		c-0.147-0.297-0.362-0.528-0.644-0.69c-0.283-0.162-0.599-0.245-0.95-0.245c-0.5,0-0.929,0.157-1.289,0.473
		C223.66,49.616,223.48,50.14,223.48,50.877 M222.75,50.864c0-0.812,0.238-1.448,0.713-1.907c0.477-0.461,1.089-0.69,1.842-0.69
		c0.493,0,0.936,0.109,1.331,0.325c0.396,0.215,0.697,0.516,0.904,0.902c0.207,0.387,0.313,0.825,0.313,1.314
		c0,0.496-0.109,0.941-0.328,1.331c-0.219,0.392-0.528,0.689-0.927,0.89c-0.401,0.201-0.833,0.302-1.296,0.302
		c-0.503,0-0.952-0.111-1.347-0.334c-0.396-0.222-0.696-0.526-0.899-0.911C222.853,51.701,222.75,51.295,222.75,50.864"/>
	<path class="st2" d="M229.831,53.249v-4.9h1.058l1.261,3.468c0.117,0.323,0.201,0.565,0.254,0.726
		c0.062-0.178,0.157-0.44,0.286-0.786l1.284-3.408h0.945v4.9h-0.678v-4.098l-1.556,4.098h-0.636l-1.54-4.174v4.174H229.831z"/>
	<path class="st2" d="M237.844,50.676h1.377c0.457,0,0.78-0.078,0.973-0.233c0.191-0.157,0.286-0.376,0.286-0.66
		c0-0.203-0.056-0.38-0.17-0.524c-0.113-0.147-0.261-0.244-0.445-0.291c-0.118-0.028-0.339-0.042-0.659-0.042h-1.363V50.676z
		 M237.136,53.249v-4.9h2.013c0.355,0,0.625,0.016,0.812,0.048c0.261,0.039,0.482,0.117,0.659,0.228
		c0.178,0.113,0.321,0.27,0.429,0.471c0.108,0.203,0.161,0.426,0.161,0.667c0,0.415-0.143,0.768-0.433,1.056
		c-0.288,0.288-0.81,0.431-1.564,0.431h-1.368v1.999H237.136z"/>
	<path class="st2" d="M243.588,51.238h1.817l-0.556-1.36c-0.168-0.411-0.293-0.752-0.381-1.022c-0.074,0.32-0.171,0.634-0.295,0.943
		L243.588,51.238z M242.054,53.249l2.047-4.9h0.775l2.172,4.9h-0.803l-0.618-1.485h-2.246l-0.577,1.485H242.054z"/>
	<polygon class="st2" points="248.684,53.249 248.684,48.349 249.41,48.349 252.207,52.195 252.207,48.349 252.885,48.349 
		252.885,53.249 252.161,53.249 249.362,49.403 249.362,53.249 	"/>
	<path class="st2" d="M256.66,53.249v-2.076l-2.055-2.823h0.849l1.054,1.483c0.196,0.275,0.378,0.549,0.544,0.825
		c0.162-0.256,0.36-0.544,0.59-0.863l1.033-1.444h0.823l-2.13,2.823v2.076H256.66z"/>
	<rect x="259.089" y="52.472" class="st2" width="0.846" height="0.777"/>
</g>
</svg>
