<svg width="205" height="61" viewBox="0 0 205 61" fill="none" xmlns="http://www.w3.org/2000/svg">
<mask id="mask0" mask-type="alpha" maskUnits="userSpaceOnUse" x="0" y="0" width="49" height="61">
<path fill-rule="evenodd" clip-rule="evenodd" d="M0.383179 0.833465H48.2813V60.5505H0.383179V0.833465Z" fill="white"/>
</mask>
<g mask="url(#mask0)">
<path fill-rule="evenodd" clip-rule="evenodd" d="M24.0635 60.3937C21.6111 58.954 19.1971 57.4384 16.8597 55.7714C12.913 52.9297 9.15785 49.8608 5.93916 46.1099C3.98496 43.8366 2.29897 41.3738 1.2644 38.4943C1.07281 37.9639 0.919536 37.3956 0.766265 36.8273C0.612994 36.1453 0.49804 35.5012 0.383087 34.8192V34.554C0.459723 34.4024 0.421405 34.213 0.421405 34.0614V7.95645C0.421405 7.80489 0.459723 7.61545 0.383087 7.4639V7.27446C0.459723 7.12291 0.612994 7.04713 0.766265 6.97135C5.01954 5.07694 9.42608 3.52353 13.9476 2.27322C15.9018 1.81856 17.8177 1.3639 19.8102 1.09868C21.1896 0.947129 22.5308 0.833465 23.9102 0.833465C24.9065 0.833465 25.8644 0.833465 26.8607 0.985017C27.5504 1.09868 28.2401 1.13657 28.9298 1.21235C31.8036 1.667 34.6392 2.34899 37.398 3.22042C40.9616 4.31918 44.4102 5.60738 47.8205 7.12291C48.1653 7.27446 48.2803 7.42601 48.2803 7.80489C48.2803 16.1024 48.2036 24.3999 48.2803 32.6596C48.3186 36.3347 47.284 39.631 45.2915 42.6999C43.3756 45.6556 40.9616 48.2316 38.356 50.581C35.942 52.7782 33.3747 54.7487 30.6924 56.567C29.1214 57.6279 27.5121 58.6887 25.8644 59.6359C25.4429 59.8637 25.0214 60.0906 24.6382 60.3937C24.4083 60.5832 24.2551 60.6214 24.0635 60.3937Z" fill="black"/>
</g>
<mask id="mask1" mask-type="alpha" maskUnits="userSpaceOnUse" x="0" y="7" width="1" height="28">
<path fill-rule="evenodd" clip-rule="evenodd" d="M0.383173 7.50194H0.661015V34.592H0.383173V7.50194Z" fill="white"/>
</mask>
<g mask="url(#mask1)">
<path fill-rule="evenodd" clip-rule="evenodd" d="M0.421524 7.50194C0.574795 7.65349 0.498159 7.80504 0.498159 7.9566V34.1749C0.498159 34.3268 0.536477 34.4783 0.421524 34.592V7.50194Z" fill="#181818"/>
</g>
<path fill-rule="evenodd" clip-rule="evenodd" d="M19.7336 1.21246C20.5 0.985131 21.3047 0.985131 22.071 0.871466C22.186 0.871466 22.3393 0.909355 22.3776 0.757802H22.6458C22.8374 0.833578 23.029 0.833578 23.1822 0.757802H25.0981C25.328 0.833578 25.5963 0.833578 25.8262 0.757802H26.0178C26.6308 0.947243 27.2822 0.909355 27.8953 1.02302C28.2402 1.06091 28.5467 1.06091 28.8533 1.21246C28.3935 1.28824 27.9336 1.13668 27.5121 1.0988C25.0981 0.79569 22.6075 0.871466 20.1551 1.21246C20.0019 1.25035 19.8869 1.21246 19.7336 1.21246Z" fill="#898989"/>
<path fill-rule="evenodd" clip-rule="evenodd" d="M0.421539 34.8573C0.689764 35.501 0.689764 36.1834 0.804717 36.8654C0.57481 36.524 0.728081 36.0693 0.421539 35.7662V34.8573Z" fill="#747474"/>
<mask id="mask2" mask-type="alpha" maskUnits="userSpaceOnUse" x="25" y="0" width="1" height="1">
<path fill-rule="evenodd" clip-rule="evenodd" d="M25.1748 0.757764H25.9028V0.997147H25.1748V0.757764Z" fill="white"/>
</mask>
<g mask="url(#mask2)">
<path fill-rule="evenodd" clip-rule="evenodd" d="M25.9028 0.757726C25.6729 0.909279 25.4047 0.871391 25.1748 0.757726H25.9028Z" fill="#ADADAD"/>
</g>
<mask id="mask3" mask-type="alpha" maskUnits="userSpaceOnUse" x="24" y="60" width="1" height="1">
<path fill-rule="evenodd" clip-rule="evenodd" d="M24.0635 60.299H24.5999V60.5832H24.0635V60.299Z" fill="white"/>
</mask>
<g mask="url(#mask3)">
<path fill-rule="evenodd" clip-rule="evenodd" d="M24.0635 60.3937C24.2551 60.4695 24.4083 60.4695 24.5999 60.3937C24.5616 60.4695 24.5233 60.5074 24.5233 60.5832H24.1401C24.1018 60.5453 24.1018 60.4695 24.0635 60.3937Z" fill="#BFBFBF"/>
</g>
<mask id="mask4" mask-type="alpha" maskUnits="userSpaceOnUse" x="22" y="0" width="2" height="1">
<path fill-rule="evenodd" clip-rule="evenodd" d="M22.6841 0.757764H23.2206V0.997147H22.6841V0.757764Z" fill="white"/>
</mask>
<g mask="url(#mask4)">
<path fill-rule="evenodd" clip-rule="evenodd" d="M23.2206 0.757726C23.029 0.871391 22.8374 0.909279 22.6841 0.757726H23.2206Z" fill="#BEBEBE"/>
</g>
<path fill-rule="evenodd" clip-rule="evenodd" d="M30.8458 2.8795C34.5243 3.63727 38.0495 4.73602 41.5748 6.02422C43.2607 6.63043 44.9467 7.31242 46.5944 8.0323C46.8243 8.14596 46.9392 8.25963 46.9392 8.52484V33.9478C46.9392 36.7516 45.943 39.2143 44.5252 41.5634C42.4944 44.8596 39.8505 47.6255 36.9383 50.164C33.1449 53.4981 29.0065 56.3398 24.6766 58.954C24.2935 59.1814 24.0252 59.0298 23.757 58.8404C20.8449 57.0217 17.971 55.2031 15.2888 53.1193C11.7252 50.3534 8.39158 47.3981 5.67102 43.7988C4.13831 41.7907 2.87382 39.6311 2.1841 37.2062C1.83925 36.0696 1.68597 34.895 1.68597 33.7205V8.6764C1.68597 8.37329 1.76261 8.18385 2.06915 8.07019C6.62896 6.06211 11.3037 4.39503 16.0935 3.25838C19.1972 2.50062 22.3776 2.00807 25.5963 2.15963C27.0523 2.2354 28.5084 2.42484 29.9262 2.69006C30.2327 2.76584 30.5776 2.72795 30.8458 2.8795Z" fill="#FEFEFE"/>
<path fill-rule="evenodd" clip-rule="evenodd" d="M30.8458 2.8795C30.5393 2.8795 30.2327 2.80373 29.9262 2.69006C30.271 2.65217 30.5776 2.65217 30.8458 2.8795Z" fill="#575757"/>
<path fill-rule="evenodd" clip-rule="evenodd" d="M3.83178 34.7814C3.75515 34.1373 3.71683 33.4554 3.71683 32.7734V10.2678C3.71683 9.96467 3.83178 9.81312 4.1 9.69945C8.31496 7.84293 12.6065 6.28952 17.0514 5.19076C20.8065 4.28144 24.6 3.90256 28.4318 4.54666C31.3056 5.03921 34.0645 5.75908 36.8234 6.6684C39.4673 7.53983 42.0346 8.52492 44.6019 9.66157C44.8701 9.77523 45.0234 9.92678 45.0234 10.2678C45.0234 17.5423 44.9467 24.8547 45.0234 32.1293C45.0617 35.3115 44.1421 38.1531 42.4561 40.8053C40.5785 43.7231 38.2028 46.1858 35.5972 48.4591C32.2636 51.3765 28.6617 53.8767 24.8299 56.1125C24.4851 56.3019 24.2168 56.3395 23.872 56.1125C18.7374 53.0814 13.9477 49.5957 9.80935 45.2765C7.77851 43.1168 5.97758 40.8053 4.78972 38.0398C4.48318 37.3578 4.25328 36.6758 4.1 35.9939C3.94673 35.6529 3.98505 35.1982 3.83178 34.7814Z" fill="black"/>
<path fill-rule="evenodd" clip-rule="evenodd" d="M3.83177 34.7814C4.06168 35.1982 4.06168 35.615 4.09999 36.0693C3.9084 35.6529 3.83177 35.2361 3.83177 34.7814Z" fill="#575757"/>
<path fill-rule="evenodd" clip-rule="evenodd" d="M9.27297 28.3782V16.9738C9.27297 16.595 9.3496 16.4813 9.73278 16.4813C11.2272 16.5192 12.7216 16.5192 14.1776 16.4813C14.5608 16.4813 14.6758 16.595 14.6375 16.9738V25.9912C14.6375 26.3326 14.6758 26.4459 15.0973 26.4459C17.9328 26.408 20.8066 26.4459 23.6421 26.4459C24.0253 26.4459 24.1403 26.3701 24.1403 25.9912V16.9738C24.1403 16.595 24.2552 16.4813 24.6384 16.4813H40.2337C40.6169 16.4813 40.6935 16.595 40.6935 16.9359C40.6552 18.1863 40.6552 19.4366 40.6935 20.649C40.6935 21.0279 40.6169 21.1794 40.1954 21.1794H30.0795C29.6963 21.1794 29.5814 21.2552 29.5814 21.6341C29.6197 23.0359 29.6197 24.4382 29.5814 25.8018C29.5814 26.1807 29.658 26.2943 30.0412 26.2943H39.6206C40.0421 26.2943 40.1571 26.3701 40.1571 26.8248C40.1188 28.0376 40.1188 29.2875 40.1571 30.5003C40.1571 30.8792 40.0421 31.0304 39.6589 31.0304C36.4786 31.0304 33.2982 31.0304 30.0795 30.9925C29.658 30.9925 29.5814 31.1061 29.5814 31.485C29.6197 34.2891 29.5814 37.0546 29.6197 39.8583C29.6197 40.2372 29.5431 40.313 29.1599 40.313C27.6272 40.2751 26.0945 40.313 24.5618 40.313C24.2552 40.313 24.1403 40.2372 24.1403 39.8962V31.4475C24.1403 31.0304 24.0253 30.9546 23.6421 30.9546H15.1356C14.7524 30.9546 14.6758 31.0686 14.6758 31.4092V39.8583C14.6758 40.1993 14.5991 40.313 14.216 40.313C12.7216 40.2751 11.2272 40.2751 9.69446 40.313C9.3496 40.313 9.23465 40.2372 9.23465 39.8583C9.31129 35.9941 9.27297 32.2053 9.27297 28.3782Z" fill="#FEFEFE"/>
<path fill-rule="evenodd" clip-rule="evenodd" d="M54.8642 12.2465H59.0987V19.1262H67.3228V12.2465H71.5569V30.6961H67.3228V22.7222H59.0987V30.6961H54.8642V12.2465Z" fill="black"/>
<path fill-rule="evenodd" clip-rule="evenodd" d="M78.8309 21.4714C78.8309 22.3401 78.9708 23.135 79.2521 23.8557C79.5318 24.5771 79.9345 25.2026 80.4598 25.7323C80.9844 26.2623 81.6132 26.6745 82.3458 26.9701C83.0788 27.2656 83.8973 27.413 84.8024 27.413C85.7067 27.413 86.5259 27.2656 87.2589 26.9701C87.9916 26.6745 88.6204 26.2623 89.1453 25.7323C89.6699 25.2026 90.0722 24.5771 90.3531 23.8557C90.6336 23.135 90.7738 22.3401 90.7738 21.4714C90.7738 20.6204 90.6336 19.8297 90.3531 19.0999C90.0722 18.3702 89.6699 17.7409 89.1453 17.2108C88.6204 16.6808 87.9916 16.2685 87.2589 15.973C86.5259 15.6775 85.7067 15.5297 84.8024 15.5297C83.8973 15.5297 83.0788 15.6775 82.3458 15.973C81.6132 16.2685 80.9844 16.6808 80.4598 17.2108C79.9345 17.7409 79.5318 18.3702 79.2521 19.0999C78.9708 19.8297 78.8309 20.6204 78.8309 21.4714ZM74.4336 21.4714C74.4336 19.9952 74.6919 18.657 75.2072 17.4582C75.723 16.2595 76.4426 15.2391 77.3653 14.3965C78.288 13.5539 79.3827 12.9067 80.6495 12.4547C81.9163 12.0035 83.2999 11.7773 84.8024 11.7773C86.3041 11.7773 87.6885 12.0035 88.9553 12.4547C90.222 12.9067 91.3168 13.5539 92.2395 14.3965C93.1622 15.2391 93.8814 16.2595 94.3971 17.4582C94.9133 18.657 95.1712 19.9952 95.1712 21.4714C95.1712 22.9482 94.9133 24.2857 94.3971 25.4845C93.8814 26.6833 93.1622 27.704 92.2395 28.5466C91.3168 29.3892 90.222 30.036 88.9553 30.488C87.6885 30.9396 86.3041 31.1654 84.8024 31.1654C83.2999 31.1654 81.9163 30.9396 80.6495 30.488C79.3827 30.036 78.288 29.3892 77.3653 28.5466C76.4426 27.704 75.723 26.6833 75.2072 25.4845C74.6919 24.2857 74.4336 22.9482 74.4336 21.4714Z" fill="black"/>
<path fill-rule="evenodd" clip-rule="evenodd" d="M98.2106 12.2465H102.445V26.9437H110.289V30.6961H98.2106V12.2465Z" fill="black"/>
<path fill-rule="evenodd" clip-rule="evenodd" d="M116.857 26.9437H119.056C120.033 26.9437 120.942 26.8486 121.784 26.6573C122.625 26.4663 123.353 26.1488 123.969 25.7059C124.584 25.263 125.068 24.681 125.421 23.96C125.774 23.2394 125.95 22.3577 125.95 21.315C125.95 20.4118 125.774 19.6256 125.421 18.9565C125.068 18.2881 124.593 17.7365 123.996 17.3019C123.399 16.8677 122.697 16.5423 121.892 16.3248C121.087 16.1077 120.241 15.9989 119.355 15.9989H116.857V26.9437ZM112.623 12.2465H118.974C120.512 12.2465 121.974 12.4117 123.358 12.7417C124.742 13.0717 125.95 13.6059 126.981 14.3444C128.013 15.0828 128.831 16.0425 129.438 17.2239C130.044 18.4052 130.347 19.8385 130.347 21.5234C130.347 23.0181 130.053 24.3336 129.465 25.4714C128.877 26.6095 128.085 27.5654 127.09 28.338C126.094 29.1113 124.946 29.6978 123.643 30.0968C122.34 30.4972 120.974 30.6961 119.544 30.6961H112.623V12.2465Z" fill="black"/>
<path fill-rule="evenodd" clip-rule="evenodd" d="M141.421 12.2465H154.314V15.9989H145.655V19.7514H153.662V23.5042H145.655V30.6961H141.421V12.2465Z" fill="black"/>
<path fill-rule="evenodd" clip-rule="evenodd" d="M163.814 17.6146L161.479 23.3475H166.175L163.814 17.6146ZM162.185 12.2466H165.687L174.046 30.6963H169.269L167.614 26.7874H160.149L158.548 30.6963H153.879L162.185 12.2466Z" fill="black"/>
<path fill-rule="evenodd" clip-rule="evenodd" d="M185.473 16.7546C185.13 16.3378 184.664 16.0294 184.076 15.8297C183.487 15.6301 182.931 15.53 182.406 15.53C182.098 15.53 181.782 15.5649 181.456 15.6338C181.131 15.7039 180.823 15.8123 180.533 15.9597C180.244 16.1074 180.008 16.3033 179.828 16.5462C179.647 16.7898 179.556 17.085 179.556 17.4324C179.556 17.9882 179.773 18.4137 180.208 18.7092C180.642 19.0048 181.189 19.2563 181.85 19.4647C182.51 19.6735 183.221 19.8819 183.98 20.0903C184.741 20.2986 185.45 20.5942 186.111 20.9765C186.772 21.3588 187.319 21.8714 187.753 22.514C188.188 23.1565 188.405 24.0166 188.405 25.0938C188.405 26.119 188.206 27.0132 187.808 27.7778C187.409 28.5424 186.871 29.1762 186.193 29.6801C185.514 30.1841 184.727 30.5576 183.831 30.8005C182.935 31.0437 181.99 31.1654 180.995 31.1654C179.746 31.1654 178.588 30.9831 177.52 30.6182C176.452 30.2534 175.457 29.6631 174.535 28.8462L177.548 25.667C177.982 26.2228 178.529 26.6532 179.19 26.9571C179.85 27.261 180.533 27.4129 181.239 27.4129C181.583 27.4129 181.931 27.3735 182.284 27.2958C182.637 27.2174 182.953 27.1003 183.234 26.9439C183.514 26.7874 183.741 26.5877 183.913 26.3445C184.084 26.1016 184.171 25.8148 184.171 25.4844C184.171 24.9286 183.949 24.4902 183.505 24.1685C183.062 23.8476 182.506 23.5737 181.836 23.3475C181.167 23.1224 180.442 22.8959 179.665 22.6701C178.887 22.4446 178.163 22.1404 177.494 21.7581C176.824 21.3762 176.267 20.8719 175.824 20.2467C175.38 19.6212 175.159 18.7964 175.159 17.7711C175.159 16.7807 175.363 15.9123 175.77 15.1652C176.177 14.418 176.72 13.7929 177.399 13.2889C178.077 12.785 178.859 12.4073 179.746 12.1553C180.633 11.9034 181.546 11.7772 182.488 11.7772C183.573 11.7772 184.623 11.925 185.636 12.2205C186.649 12.516 187.563 13.0112 188.378 13.7057L185.473 16.7546Z" fill="black"/>
<path fill-rule="evenodd" clip-rule="evenodd" d="M195.272 15.8425H189.789V12.2466H204.989V15.8425H199.506V30.6962H195.272V15.8425Z" fill="black"/>
<mask id="mask5" mask-type="alpha" maskUnits="userSpaceOnUse" x="0" y="0" width="205" height="61">
<path fill-rule="evenodd" clip-rule="evenodd" d="M0.383179 60.5832H204.989V0.757764H0.383179V60.5832Z" fill="white"/>
</mask>
<g mask="url(#mask5)">
<path fill-rule="evenodd" clip-rule="evenodd" d="M55.1067 42.3484H57.0199V32.6918H55.1067V42.3484Z" fill="black"/>
<path fill-rule="evenodd" clip-rule="evenodd" d="M64.0746 32.6917H66.5856L74.358 40.63H74.3978V32.6917H76.311V42.3482H73.8794L66.0277 34.4103H65.9879V42.3482H64.0746V32.6917Z" fill="black"/>
<path fill-rule="evenodd" clip-rule="evenodd" d="M84.9599 41.1207H87.3712C88.1813 41.1207 88.9488 41.046 89.673 40.8956C90.3968 40.746 91.031 40.5205 91.5762 40.2208C92.1203 39.9204 92.5522 39.5457 92.871 39.0952C93.1902 38.6454 93.35 38.1199 93.35 37.5198C93.35 37.2114 93.2768 36.8495 93.1304 36.4358C92.984 36.0221 92.7089 35.6288 92.3035 35.256C91.8981 34.8831 91.3371 34.5671 90.6194 34.308C89.9021 34.0488 88.9721 33.9189 87.8291 33.9189H84.9599V41.1207ZM83.0467 32.6917H87.9694C88.9653 32.6917 89.8385 32.769 90.5892 32.9236C91.3398 33.0781 91.9912 33.2846 92.5426 33.5442C93.094 33.8033 93.5523 34.1011 93.9174 34.4376C94.283 34.774 94.5719 35.1192 94.785 35.4742C94.9969 35.8288 95.1501 36.1835 95.2429 36.5377C95.3356 36.8927 95.3823 37.2201 95.3823 37.5198C95.3823 38.1385 95.2164 38.7364 94.8842 39.3134C94.552 39.8912 94.0604 40.405 93.4093 40.8551C92.7583 41.3048 91.9514 41.6666 90.988 41.9391C90.0247 42.2122 88.912 42.3482 87.6502 42.3482H83.0467V32.6917Z" fill="black"/>
<path fill-rule="evenodd" clip-rule="evenodd" d="M103.215 32.6917V38.6113C103.215 38.9114 103.274 39.2228 103.394 39.5457C103.513 39.8685 103.712 40.1663 103.991 40.4391C104.271 40.7119 104.636 40.935 105.088 41.1074C105.539 41.2802 106.097 41.3666 106.762 41.3666C107.426 41.3666 107.984 41.2802 108.436 41.1074C108.888 40.935 109.253 40.7119 109.532 40.4391C109.811 40.1663 110.01 39.8685 110.13 39.5457C110.249 39.2228 110.309 38.9114 110.309 38.6113V32.6917H112.222V38.8156C112.222 39.3797 112.083 39.8912 111.804 40.3504C111.525 40.8096 111.14 41.2074 110.648 41.5439C110.156 41.8803 109.578 42.1399 108.914 42.3213C108.25 42.5032 107.532 42.5941 106.762 42.5941C105.991 42.5941 105.274 42.5032 104.61 42.3213C103.945 42.1399 103.367 41.8803 102.876 41.5439C102.384 41.2074 101.999 40.8096 101.72 40.3504C101.441 39.8912 101.301 39.3797 101.301 38.8156V32.6917H103.215Z" fill="black"/>
<path fill-rule="evenodd" clip-rule="evenodd" d="M119.437 40.3296C119.782 40.6846 120.224 40.946 120.762 41.1139C121.3 41.2829 121.854 41.3662 122.426 41.3662C122.745 41.3662 123.07 41.3321 123.402 41.2643C123.734 41.1961 124.037 41.0938 124.309 40.957C124.581 40.821 124.804 40.6532 124.977 40.4524C125.149 40.2527 125.236 40.0212 125.236 39.7567C125.236 39.3843 125.063 39.1001 124.717 38.9042C124.372 38.7091 123.943 38.5454 123.432 38.4132C122.921 38.2821 122.363 38.1544 121.758 38.0317C121.153 37.9089 120.595 37.738 120.084 37.5198C119.572 37.302 119.144 37.0083 118.799 36.6404C118.453 36.2722 118.28 35.7743 118.28 35.1465C118.28 34.865 118.371 34.5649 118.55 34.2466C118.729 33.9284 119.011 33.6374 119.397 33.3737C119.782 33.11 120.276 32.8895 120.881 32.7122C121.486 32.5349 122.213 32.4458 123.064 32.4458C123.834 32.4458 124.571 32.5189 125.275 32.6644C125.98 32.8096 126.597 33.1058 127.129 33.5506L125.575 34.5191C125.336 34.2648 124.997 34.0602 124.558 33.9057C124.12 33.7511 123.622 33.6738 123.064 33.6738C122.532 33.6738 122.09 33.7215 121.738 33.817C121.386 33.9125 121.104 34.0352 120.891 34.1853C120.678 34.3353 120.529 34.4967 120.443 34.6695C120.356 34.8423 120.313 35.0014 120.313 35.1465C120.313 35.5557 120.486 35.8698 120.832 36.088C121.177 36.3063 121.605 36.4836 122.117 36.62C122.628 36.756 123.186 36.8791 123.791 36.9882C124.395 37.0974 124.953 37.2497 125.465 37.4452C125.976 37.6403 126.405 37.9044 126.75 38.2363C127.095 38.5686 127.268 39.0251 127.268 39.6071C127.268 40.0704 127.139 40.4891 126.88 40.8616C126.621 41.2347 126.272 41.5485 125.833 41.8031C125.395 42.0577 124.877 42.2528 124.279 42.3896C123.681 42.526 123.043 42.5942 122.366 42.5942C121.462 42.5942 120.606 42.4847 119.795 42.2668C118.984 42.0486 118.341 41.7118 117.862 41.2575L119.437 40.3296Z" fill="black"/>
<path fill-rule="evenodd" clip-rule="evenodd" d="M136.476 33.919H131.932V32.6918H142.933V33.919H138.388V42.3483H136.476V33.919Z" fill="black"/>
<path fill-rule="evenodd" clip-rule="evenodd" d="M150.306 36.9471H152.817C153.189 36.9471 153.557 36.9266 153.923 36.8857C154.288 36.8448 154.614 36.7697 154.899 36.6606C155.185 36.5519 155.414 36.395 155.587 36.1901C155.759 35.9858 155.846 35.7195 155.846 35.3921C155.846 35.0648 155.759 34.7988 155.587 34.5946C155.414 34.3896 155.185 34.2327 154.899 34.124C154.614 34.0145 154.288 33.9399 153.923 33.899C153.557 33.8577 153.189 33.8376 152.817 33.8376H150.306V36.9471ZM148.393 32.6918H153.355C154.258 32.6918 155.003 32.7756 155.587 32.9442C156.172 33.1124 156.633 33.3257 156.972 33.5852C157.311 33.8444 157.546 34.135 157.679 34.4578C157.812 34.781 157.879 35.0921 157.879 35.3921C157.879 35.7017 157.799 35.9991 157.64 36.2855C157.481 36.572 157.251 36.8311 156.952 37.0634C156.653 37.2949 156.288 37.4908 155.856 37.6495C155.424 37.8086 154.943 37.9068 154.411 37.9431L158.417 42.3484H156.026L152.438 38.0928H150.306V42.3484H148.393V32.6918Z" fill="black"/>
<path fill-rule="evenodd" clip-rule="evenodd" d="M163.997 42.3484H165.91V32.6918H163.997V42.3484Z" fill="black"/>
<path fill-rule="evenodd" clip-rule="evenodd" d="M172.965 32.6917H182.072V33.9189H174.878V36.7972H181.574V38.0244H174.878V41.1207H182.431V42.3482H172.965V32.6917Z" fill="black"/>
<path fill-rule="evenodd" clip-rule="evenodd" d="M188.987 40.3296C189.333 40.6846 189.774 40.946 190.312 41.1139C190.85 41.2829 191.405 41.3662 191.976 41.3662C192.296 41.3662 192.621 41.3321 192.953 41.2643C193.285 41.1961 193.587 41.0938 193.86 40.957C194.132 40.821 194.355 40.6532 194.527 40.4524C194.7 40.2527 194.787 40.0212 194.787 39.7567C194.787 39.3843 194.614 39.1001 194.268 38.9042C193.923 38.7091 193.494 38.5454 192.983 38.4132C192.472 38.2821 191.914 38.1544 191.309 38.0317C190.704 37.9089 190.146 37.738 189.635 37.5198C189.123 37.302 188.695 37.0083 188.35 36.6404C188.004 36.2722 187.831 35.7743 187.831 35.1465C187.831 34.865 187.921 34.5649 188.101 34.2466C188.28 33.9284 188.562 33.6374 188.947 33.3737C189.333 33.11 189.827 32.8895 190.432 32.7122C191.037 32.5349 191.764 32.4458 192.614 32.4458C193.385 32.4458 194.122 32.5189 194.826 32.6644C195.53 32.8096 196.148 33.1058 196.68 33.5506L195.125 34.5191C194.886 34.2648 194.548 34.0602 194.109 33.9057C193.671 33.7511 193.172 33.6738 192.614 33.6738C192.083 33.6738 191.641 33.7215 191.289 33.817C190.937 33.9125 190.655 34.0352 190.442 34.1853C190.229 34.3353 190.08 34.4967 189.994 34.6695C189.907 34.8423 189.864 35.0014 189.864 35.1465C189.864 35.5557 190.036 35.8698 190.382 36.088C190.728 36.3063 191.156 36.4836 191.668 36.62C192.179 36.756 192.737 36.8791 193.342 36.9882C193.946 37.0974 194.504 37.2497 195.015 37.4452C195.527 37.6403 195.956 37.9044 196.301 38.2363C196.646 38.5686 196.819 39.0251 196.819 39.6071C196.819 40.0704 196.69 40.4891 196.431 40.8616C196.172 41.2347 195.823 41.5485 195.384 41.8031C194.946 42.0577 194.428 42.2528 193.83 42.3896C193.232 42.526 192.594 42.5942 191.917 42.5942C191.013 42.5942 190.156 42.4847 189.346 42.2668C188.535 42.0486 187.891 41.7118 187.413 41.2575L188.987 40.3296Z" fill="black"/>
</g>
</svg>
